# xmcd CD database file
#
# Track frame offsets:
#	183
#	11368
#	22483
#	35413
#	47710
#	58985
#	71398
#	84718
#	97020
#	110478
#	123148
#	134273
#	145270
#	155413
#	167308
#	178655
#
# Disc length: 2571 seconds
#
# Revision: 1
# Processed by: cddbd v1.5.2PL0 Copyright (c) Steve Scherf et al.
# Submitted via: CDex 1.51
#
DISCID=d90a0910
DTITLE=Guy Mitchell - Singing The Blues
DYEAR=1900
DGENRE=Crooner
TTITLE0=Singing The Blues
TTITLE1=Belle Belle My Liberty Bell
TTITLE2=My Truly Truly Fair
TTITLE3=Cuff Off My Shirt
TTITLE4=In The Middle Of A Dark Night
TTITLE5=Chicka Boom
TTITLE6=My Shoes Keep Walking Back To You
TTITLE7=Heartaches By The Number
TTITLE8=Pittsburgh, Pennsylvania
TTITLE9=My Heart Cries For You
TTITLE10=The Same Old Me
TTITLE11=Dime And A Dollar
TTITLE12=Knee Deep In The Dark
TTITLE13=Pretty, Little Black Eyed Suzie
TTITLE14=Sippin' Soda
TTITLE15=She Wears Red Feathers
EXTD=\n\n                                                                              Les
EXTT0=
EXTT1=
EXTT2=
EXTT3=
EXTT4=
EXTT5=
EXTT6=
EXTT7=
EXTT8=
EXTT9=
EXTT10=
EXTT11=
EXTT12=
EXTT13=
EXTT14=
EXTT15=
PLAYORDER=
